solid demo_brand_base
  facet normal 0 0 -1
    outer loop
      vertex 0 0 0
      vertex 32 32 0
      vertex 32 0 0
    endloop
  endfacet
  facet normal 0 0 -1
    outer loop
      vertex 0 0 0
      vertex 0 32 0
      vertex 32 32 0
    endloop
  endfacet
  facet normal 0 0 1
    outer loop
      vertex 0 0 8
      vertex 32 0 8
      vertex 32 32 8
    endloop
  endfacet
  facet normal 0 0 1
    outer loop
      vertex 0 0 8
      vertex 32 32 8
      vertex 0 32 8
    endloop
  endfacet
  facet normal 0 -1 0
    outer loop
      vertex 0 0 0
      vertex 32 0 0
      vertex 32 0 8
    endloop
  endfacet
  facet normal 0 -1 0
    outer loop
      vertex 0 0 0
      vertex 32 0 8
      vertex 0 0 8
    endloop
  endfacet
  facet normal 0 1 0
    outer loop
      vertex 0 32 0
      vertex 32 32 8
      vertex 32 32 0
    endloop
  endfacet
  facet normal 0 1 0
    outer loop
      vertex 0 32 0
      vertex 0 32 8
      vertex 32 32 8
    endloop
  endfacet
  facet normal -1 0 0
    outer loop
      vertex 0 0 0
      vertex 0 32 8
      vertex 0 32 0
    endloop
  endfacet
  facet normal -1 0 0
    outer loop
      vertex 0 0 0
      vertex 0 0 8
      vertex 0 32 8
    endloop
  endfacet
  facet normal 1 0 0
    outer loop
      vertex 32 0 0
      vertex 32 32 0
      vertex 32 32 8
    endloop
  endfacet
  facet normal 1 0 0
    outer loop
      vertex 32 0 0
      vertex 32 32 8
      vertex 32 0 8
    endloop
  endfacet

  facet normal 0 0 -1
    outer loop
      vertex 7 7 8
      vertex 25 25 8
      vertex 25 7 8
    endloop
  endfacet
  facet normal 0 0 -1
    outer loop
      vertex 7 7 8
      vertex 7 25 8
      vertex 25 25 8
    endloop
  endfacet
  facet normal 0 0 1
    outer loop
      vertex 7 7 22
      vertex 25 7 22
      vertex 25 25 22
    endloop
  endfacet
  facet normal 0 0 1
    outer loop
      vertex 7 7 22
      vertex 25 25 22
      vertex 7 25 22
    endloop
  endfacet
  facet normal 0 -1 0
    outer loop
      vertex 7 7 8
      vertex 25 7 8
      vertex 25 7 22
    endloop
  endfacet
  facet normal 0 -1 0
    outer loop
      vertex 7 7 8
      vertex 25 7 22
      vertex 7 7 22
    endloop
  endfacet
  facet normal 0 1 0
    outer loop
      vertex 7 25 8
      vertex 25 25 22
      vertex 25 25 8
    endloop
  endfacet
  facet normal 0 1 0
    outer loop
      vertex 7 25 8
      vertex 7 25 22
      vertex 25 25 22
    endloop
  endfacet
  facet normal -1 0 0
    outer loop
      vertex 7 7 8
      vertex 7 25 22
      vertex 7 25 8
    endloop
  endfacet
  facet normal -1 0 0
    outer loop
      vertex 7 7 8
      vertex 7 7 22
      vertex 7 25 22
    endloop
  endfacet
  facet normal 1 0 0
    outer loop
      vertex 25 7 8
      vertex 25 25 8
      vertex 25 25 22
    endloop
  endfacet
  facet normal 1 0 0
    outer loop
      vertex 25 7 8
      vertex 25 25 22
      vertex 25 7 22
    endloop
  endfacet

  facet normal 0 0 -1
    outer loop
      vertex 12 12 22
      vertex 20 20 22
      vertex 20 12 22
    endloop
  endfacet
  facet normal 0 0 -1
    outer loop
      vertex 12 12 22
      vertex 12 20 22
      vertex 20 20 22
    endloop
  endfacet
  facet normal 0 0 1
    outer loop
      vertex 12 12 30
      vertex 20 12 30
      vertex 20 20 30
    endloop
  endfacet
  facet normal 0 0 1
    outer loop
      vertex 12 12 30
      vertex 20 20 30
      vertex 12 20 30
    endloop
  endfacet
  facet normal 0 -1 0
    outer loop
      vertex 12 12 22
      vertex 20 12 22
      vertex 20 12 30
    endloop
  endfacet
  facet normal 0 -1 0
    outer loop
      vertex 12 12 22
      vertex 20 12 30
      vertex 12 12 30
    endloop
  endfacet
  facet normal 0 1 0
    outer loop
      vertex 12 20 22
      vertex 20 20 30
      vertex 20 20 22
    endloop
  endfacet
  facet normal 0 1 0
    outer loop
      vertex 12 20 22
      vertex 12 20 30
      vertex 20 20 30
    endloop
  endfacet
  facet normal -1 0 0
    outer loop
      vertex 12 12 22
      vertex 12 20 30
      vertex 12 20 22
    endloop
  endfacet
  facet normal -1 0 0
    outer loop
      vertex 12 12 22
      vertex 12 12 30
      vertex 12 20 30
    endloop
  endfacet
  facet normal 1 0 0
    outer loop
      vertex 20 12 22
      vertex 20 20 22
      vertex 20 20 30
    endloop
  endfacet
  facet normal 1 0 0
    outer loop
      vertex 20 12 22
      vertex 20 20 30
      vertex 20 12 30
    endloop
  endfacet
endsolid demo_brand_base
