solid demo_brand_hybrid_v2
  facet normal 0 0 -1
    outer loop
      vertex 0 0 0
      vertex 36 24 0
      vertex 36 0 0
    endloop
  endfacet
  facet normal 0 0 -1
    outer loop
      vertex 0 0 0
      vertex 0 24 0
      vertex 36 24 0
    endloop
  endfacet
  facet normal 0 0 1
    outer loop
      vertex 0 0 8
      vertex 36 0 8
      vertex 36 24 8
    endloop
  endfacet
  facet normal 0 0 1
    outer loop
      vertex 0 0 8
      vertex 36 24 8
      vertex 0 24 8
    endloop
  endfacet
  facet normal 0 -1 0
    outer loop
      vertex 0 0 0
      vertex 36 0 0
      vertex 36 0 8
    endloop
  endfacet
  facet normal 0 -1 0
    outer loop
      vertex 0 0 0
      vertex 36 0 8
      vertex 0 0 8
    endloop
  endfacet
  facet normal 0 1 0
    outer loop
      vertex 0 24 0
      vertex 36 24 8
      vertex 36 24 0
    endloop
  endfacet
  facet normal 0 1 0
    outer loop
      vertex 0 24 0
      vertex 0 24 8
      vertex 36 24 8
    endloop
  endfacet
  facet normal -1 0 0
    outer loop
      vertex 0 0 0
      vertex 0 24 8
      vertex 0 24 0
    endloop
  endfacet
  facet normal -1 0 0
    outer loop
      vertex 0 0 0
      vertex 0 0 8
      vertex 0 24 8
    endloop
  endfacet
  facet normal 1 0 0
    outer loop
      vertex 36 0 0
      vertex 36 24 0
      vertex 36 24 8
    endloop
  endfacet
  facet normal 1 0 0
    outer loop
      vertex 36 0 0
      vertex 36 24 8
      vertex 36 0 8
    endloop
  endfacet

  facet normal 0 0 -1
    outer loop
      vertex 6 4 8
      vertex 30 20 8
      vertex 30 4 8
    endloop
  endfacet
  facet normal 0 0 -1
    outer loop
      vertex 6 4 8
      vertex 6 20 8
      vertex 30 20 8
    endloop
  endfacet
  facet normal 0 0 1
    outer loop
      vertex 6 4 18
      vertex 30 4 18
      vertex 30 20 18
    endloop
  endfacet
  facet normal 0 0 1
    outer loop
      vertex 6 4 18
      vertex 30 20 18
      vertex 6 20 18
    endloop
  endfacet
  facet normal 0 -1 0
    outer loop
      vertex 6 4 8
      vertex 30 4 8
      vertex 30 4 18
    endloop
  endfacet
  facet normal 0 -1 0
    outer loop
      vertex 6 4 8
      vertex 30 4 18
      vertex 6 4 18
    endloop
  endfacet
  facet normal 0 1 0
    outer loop
      vertex 6 20 8
      vertex 30 20 18
      vertex 30 20 8
    endloop
  endfacet
  facet normal 0 1 0
    outer loop
      vertex 6 20 8
      vertex 6 20 18
      vertex 30 20 18
    endloop
  endfacet
  facet normal -1 0 0
    outer loop
      vertex 6 4 8
      vertex 6 20 18
      vertex 6 20 8
    endloop
  endfacet
  facet normal -1 0 0
    outer loop
      vertex 6 4 8
      vertex 6 4 18
      vertex 6 20 18
    endloop
  endfacet
  facet normal 1 0 0
    outer loop
      vertex 30 4 8
      vertex 30 20 8
      vertex 30 20 18
    endloop
  endfacet
  facet normal 1 0 0
    outer loop
      vertex 30 4 8
      vertex 30 20 18
      vertex 30 4 18
    endloop
  endfacet

  facet normal 0 0 -1
    outer loop
      vertex 12 8 18
      vertex 24 16 18
      vertex 24 8 18
    endloop
  endfacet
  facet normal 0 0 -1
    outer loop
      vertex 12 8 18
      vertex 12 16 18
      vertex 24 16 18
    endloop
  endfacet
  facet normal 0 0 1
    outer loop
      vertex 12 8 34
      vertex 24 8 34
      vertex 24 16 34
    endloop
  endfacet
  facet normal 0 0 1
    outer loop
      vertex 12 8 34
      vertex 24 16 34
      vertex 12 16 34
    endloop
  endfacet
  facet normal 0 -1 0
    outer loop
      vertex 12 8 18
      vertex 24 8 18
      vertex 24 8 34
    endloop
  endfacet
  facet normal 0 -1 0
    outer loop
      vertex 12 8 18
      vertex 24 8 34
      vertex 12 8 34
    endloop
  endfacet
  facet normal 0 1 0
    outer loop
      vertex 12 16 18
      vertex 24 16 34
      vertex 24 16 18
    endloop
  endfacet
  facet normal 0 1 0
    outer loop
      vertex 12 16 18
      vertex 12 16 34
      vertex 24 16 34
    endloop
  endfacet
  facet normal -1 0 0
    outer loop
      vertex 12 8 18
      vertex 12 16 34
      vertex 12 16 18
    endloop
  endfacet
  facet normal -1 0 0
    outer loop
      vertex 12 8 18
      vertex 12 8 34
      vertex 12 16 34
    endloop
  endfacet
  facet normal 1 0 0
    outer loop
      vertex 24 8 18
      vertex 24 16 18
      vertex 24 16 34
    endloop
  endfacet
  facet normal 1 0 0
    outer loop
      vertex 24 8 18
      vertex 24 16 34
      vertex 24 8 34
    endloop
  endfacet

  facet normal 0 0 -1
    outer loop
      vertex 28 10 10
      vertex 34 14 10
      vertex 34 10 10
    endloop
  endfacet
  facet normal 0 0 -1
    outer loop
      vertex 28 10 10
      vertex 28 14 10
      vertex 34 14 10
    endloop
  endfacet
  facet normal 0 0 1
    outer loop
      vertex 28 10 28
      vertex 34 10 28
      vertex 34 14 28
    endloop
  endfacet
  facet normal 0 0 1
    outer loop
      vertex 28 10 28
      vertex 34 14 28
      vertex 28 14 28
    endloop
  endfacet
  facet normal 0 -1 0
    outer loop
      vertex 28 10 10
      vertex 34 10 10
      vertex 34 10 28
    endloop
  endfacet
  facet normal 0 -1 0
    outer loop
      vertex 28 10 10
      vertex 34 10 28
      vertex 28 10 28
    endloop
  endfacet
  facet normal 0 1 0
    outer loop
      vertex 28 14 10
      vertex 34 14 28
      vertex 34 14 10
    endloop
  endfacet
  facet normal 0 1 0
    outer loop
      vertex 28 14 10
      vertex 28 14 28
      vertex 34 14 28
    endloop
  endfacet
  facet normal -1 0 0
    outer loop
      vertex 28 10 10
      vertex 28 14 28
      vertex 28 14 10
    endloop
  endfacet
  facet normal -1 0 0
    outer loop
      vertex 28 10 10
      vertex 28 10 28
      vertex 28 14 28
    endloop
  endfacet
  facet normal 1 0 0
    outer loop
      vertex 34 10 10
      vertex 34 14 10
      vertex 34 14 28
    endloop
  endfacet
  facet normal 1 0 0
    outer loop
      vertex 34 10 10
      vertex 34 14 28
      vertex 34 10 28
    endloop
  endfacet
endsolid demo_brand_hybrid_v2
