solid ivo_tech_logo_base
  facet normal 0.000000 0.000000 1.000000
    outer loop
      vertex -7.000000 -15.000000 -1.000000
      vertex -3.200000 -15.000000 -1.000000
      vertex -3.200000 10.000000 -1.000000
    endloop
  endfacet
  facet normal 0.000000 0.000000 1.000000
    outer loop
      vertex -7.000000 -15.000000 -1.000000
      vertex -3.200000 10.000000 -1.000000
      vertex -7.000000 10.000000 -1.000000
    endloop
  endfacet
  facet normal 0.000000 0.000000 -1.000000
    outer loop
      vertex -7.000000 -15.000000 3.500000
      vertex -3.200000 10.000000 3.500000
      vertex -3.200000 -15.000000 3.500000
    endloop
  endfacet
  facet normal 0.000000 0.000000 -1.000000
    outer loop
      vertex -7.000000 -15.000000 3.500000
      vertex -7.000000 10.000000 3.500000
      vertex -3.200000 10.000000 3.500000
    endloop
  endfacet
  facet normal 0.000000 1.000000 0.000000
    outer loop
      vertex -7.000000 -15.000000 -1.000000
      vertex -7.000000 -15.000000 3.500000
      vertex -3.200000 -15.000000 3.500000
    endloop
  endfacet
  facet normal 0.000000 1.000000 0.000000
    outer loop
      vertex -7.000000 -15.000000 -1.000000
      vertex -3.200000 -15.000000 3.500000
      vertex -3.200000 -15.000000 -1.000000
    endloop
  endfacet
  facet normal -1.000000 0.000000 0.000000
    outer loop
      vertex -3.200000 -15.000000 -1.000000
      vertex -3.200000 -15.000000 3.500000
      vertex -3.200000 10.000000 3.500000
    endloop
  endfacet
  facet normal -1.000000 0.000000 0.000000
    outer loop
      vertex -3.200000 -15.000000 -1.000000
      vertex -3.200000 10.000000 3.500000
      vertex -3.200000 10.000000 -1.000000
    endloop
  endfacet
  facet normal 0.000000 -1.000000 0.000000
    outer loop
      vertex -3.200000 10.000000 -1.000000
      vertex -3.200000 10.000000 3.500000
      vertex -7.000000 10.000000 3.500000
    endloop
  endfacet
  facet normal 0.000000 -1.000000 0.000000
    outer loop
      vertex -3.200000 10.000000 -1.000000
      vertex -7.000000 10.000000 3.500000
      vertex -7.000000 10.000000 -1.000000
    endloop
  endfacet
  facet normal 1.000000 0.000000 -0.000000
    outer loop
      vertex -7.000000 10.000000 -1.000000
      vertex -7.000000 10.000000 3.500000
      vertex -7.000000 -15.000000 3.500000
    endloop
  endfacet
  facet normal 1.000000 0.000000 0.000000
    outer loop
      vertex -7.000000 10.000000 -1.000000
      vertex -7.000000 -15.000000 3.500000
      vertex -7.000000 -15.000000 -1.000000
    endloop
  endfacet
  facet normal 0.000000 0.000000 1.000000
    outer loop
      vertex -6.000000 12.000000 -1.000000
      vertex -3.800000 12.000000 -1.000000
      vertex -3.800000 16.500000 -1.000000
    endloop
  endfacet
  facet normal 0.000000 0.000000 1.000000
    outer loop
      vertex -6.000000 12.000000 -1.000000
      vertex -3.800000 16.500000 -1.000000
      vertex -6.000000 16.500000 -1.000000
    endloop
  endfacet
  facet normal 0.000000 0.000000 -1.000000
    outer loop
      vertex -6.000000 12.000000 3.500000
      vertex -3.800000 16.500000 3.500000
      vertex -3.800000 12.000000 3.500000
    endloop
  endfacet
  facet normal 0.000000 0.000000 -1.000000
    outer loop
      vertex -6.000000 12.000000 3.500000
      vertex -6.000000 16.500000 3.500000
      vertex -3.800000 16.500000 3.500000
    endloop
  endfacet
  facet normal 0.000000 1.000000 0.000000
    outer loop
      vertex -6.000000 12.000000 -1.000000
      vertex -6.000000 12.000000 3.500000
      vertex -3.800000 12.000000 3.500000
    endloop
  endfacet
  facet normal 0.000000 1.000000 0.000000
    outer loop
      vertex -6.000000 12.000000 -1.000000
      vertex -3.800000 12.000000 3.500000
      vertex -3.800000 12.000000 -1.000000
    endloop
  endfacet
  facet normal -1.000000 0.000000 0.000000
    outer loop
      vertex -3.800000 12.000000 -1.000000
      vertex -3.800000 12.000000 3.500000
      vertex -3.800000 16.500000 3.500000
    endloop
  endfacet
  facet normal -1.000000 0.000000 0.000000
    outer loop
      vertex -3.800000 12.000000 -1.000000
      vertex -3.800000 16.500000 3.500000
      vertex -3.800000 16.500000 -1.000000
    endloop
  endfacet
  facet normal 0.000000 -1.000000 0.000000
    outer loop
      vertex -3.800000 16.500000 -1.000000
      vertex -3.800000 16.500000 3.500000
      vertex -6.000000 16.500000 3.500000
    endloop
  endfacet
  facet normal 0.000000 -1.000000 0.000000
    outer loop
      vertex -3.800000 16.500000 -1.000000
      vertex -6.000000 16.500000 3.500000
      vertex -6.000000 16.500000 -1.000000
    endloop
  endfacet
  facet normal 1.000000 0.000000 -0.000000
    outer loop
      vertex -6.000000 16.500000 -1.000000
      vertex -6.000000 16.500000 3.500000
      vertex -6.000000 12.000000 3.500000
    endloop
  endfacet
  facet normal 1.000000 0.000000 0.000000
    outer loop
      vertex -6.000000 16.500000 -1.000000
      vertex -6.000000 12.000000 3.500000
      vertex -6.000000 12.000000 -1.000000
    endloop
  endfacet
  facet normal 0.000000 0.000000 1.000000
    outer loop
      vertex 1.000000 -4.000000 -1.000000
      vertex 13.500000 -4.000000 -1.000000
      vertex 13.500000 0.800000 -1.000000
    endloop
  endfacet
  facet normal 0.000000 0.000000 1.000000
    outer loop
      vertex 1.000000 -4.000000 -1.000000
      vertex 13.500000 0.800000 -1.000000
      vertex 1.000000 0.800000 -1.000000
    endloop
  endfacet
  facet normal 0.000000 0.000000 -1.000000
    outer loop
      vertex 1.000000 -4.000000 3.500000
      vertex 13.500000 0.800000 3.500000
      vertex 13.500000 -4.000000 3.500000
    endloop
  endfacet
  facet normal 0.000000 0.000000 -1.000000
    outer loop
      vertex 1.000000 -4.000000 3.500000
      vertex 1.000000 0.800000 3.500000
      vertex 13.500000 0.800000 3.500000
    endloop
  endfacet
  facet normal 0.000000 1.000000 0.000000
    outer loop
      vertex 1.000000 -4.000000 -1.000000
      vertex 1.000000 -4.000000 3.500000
      vertex 13.500000 -4.000000 3.500000
    endloop
  endfacet
  facet normal 0.000000 1.000000 0.000000
    outer loop
      vertex 1.000000 -4.000000 -1.000000
      vertex 13.500000 -4.000000 3.500000
      vertex 13.500000 -4.000000 -1.000000
    endloop
  endfacet
  facet normal -1.000000 0.000000 0.000000
    outer loop
      vertex 13.500000 -4.000000 -1.000000
      vertex 13.500000 -4.000000 3.500000
      vertex 13.500000 0.800000 3.500000
    endloop
  endfacet
  facet normal -1.000000 0.000000 0.000000
    outer loop
      vertex 13.500000 -4.000000 -1.000000
      vertex 13.500000 0.800000 3.500000
      vertex 13.500000 0.800000 -1.000000
    endloop
  endfacet
  facet normal 0.000000 -1.000000 0.000000
    outer loop
      vertex 13.500000 0.800000 -1.000000
      vertex 13.500000 0.800000 3.500000
      vertex 1.000000 0.800000 3.500000
    endloop
  endfacet
  facet normal 0.000000 -1.000000 0.000000
    outer loop
      vertex 13.500000 0.800000 -1.000000
      vertex 1.000000 0.800000 3.500000
      vertex 1.000000 0.800000 -1.000000
    endloop
  endfacet
  facet normal 1.000000 0.000000 -0.000000
    outer loop
      vertex 1.000000 0.800000 -1.000000
      vertex 1.000000 0.800000 3.500000
      vertex 1.000000 -4.000000 3.500000
    endloop
  endfacet
  facet normal 1.000000 0.000000 0.000000
    outer loop
      vertex 1.000000 0.800000 -1.000000
      vertex 1.000000 -4.000000 3.500000
      vertex 1.000000 -4.000000 -1.000000
    endloop
  endfacet
  facet normal 0.000000 0.000000 1.000000
    outer loop
      vertex 1.000000 4.000000 -1.000000
      vertex 13.500000 4.000000 -1.000000
      vertex 13.500000 8.800000 -1.000000
    endloop
  endfacet
  facet normal 0.000000 0.000000 1.000000
    outer loop
      vertex 1.000000 4.000000 -1.000000
      vertex 13.500000 8.800000 -1.000000
      vertex 1.000000 8.800000 -1.000000
    endloop
  endfacet
  facet normal 0.000000 0.000000 -1.000000
    outer loop
      vertex 1.000000 4.000000 3.500000
      vertex 13.500000 8.800000 3.500000
      vertex 13.500000 4.000000 3.500000
    endloop
  endfacet
  facet normal 0.000000 0.000000 -1.000000
    outer loop
      vertex 1.000000 4.000000 3.500000
      vertex 1.000000 8.800000 3.500000
      vertex 13.500000 8.800000 3.500000
    endloop
  endfacet
  facet normal 0.000000 1.000000 0.000000
    outer loop
      vertex 1.000000 4.000000 -1.000000
      vertex 1.000000 4.000000 3.500000
      vertex 13.500000 4.000000 3.500000
    endloop
  endfacet
  facet normal 0.000000 1.000000 0.000000
    outer loop
      vertex 1.000000 4.000000 -1.000000
      vertex 13.500000 4.000000 3.500000
      vertex 13.500000 4.000000 -1.000000
    endloop
  endfacet
  facet normal -1.000000 0.000000 0.000000
    outer loop
      vertex 13.500000 4.000000 -1.000000
      vertex 13.500000 4.000000 3.500000
      vertex 13.500000 8.800000 3.500000
    endloop
  endfacet
  facet normal -1.000000 0.000000 0.000000
    outer loop
      vertex 13.500000 4.000000 -1.000000
      vertex 13.500000 8.800000 3.500000
      vertex 13.500000 8.800000 -1.000000
    endloop
  endfacet
  facet normal 0.000000 -1.000000 0.000000
    outer loop
      vertex 13.500000 8.800000 -1.000000
      vertex 13.500000 8.800000 3.500000
      vertex 1.000000 8.800000 3.500000
    endloop
  endfacet
  facet normal 0.000000 -1.000000 0.000000
    outer loop
      vertex 13.500000 8.800000 -1.000000
      vertex 1.000000 8.800000 3.500000
      vertex 1.000000 8.800000 -1.000000
    endloop
  endfacet
  facet normal 1.000000 0.000000 -0.000000
    outer loop
      vertex 1.000000 8.800000 -1.000000
      vertex 1.000000 8.800000 3.500000
      vertex 1.000000 4.000000 3.500000
    endloop
  endfacet
  facet normal 1.000000 0.000000 0.000000
    outer loop
      vertex 1.000000 8.800000 -1.000000
      vertex 1.000000 4.000000 3.500000
      vertex 1.000000 4.000000 -1.000000
    endloop
  endfacet
endsolid ivo_tech_logo_base
